<svg width="22" height="21" viewBox="0 0 22 20" fill="none" xmlns="http://www.w3.org/2000/svg">
<path d="M15.0998 10.3L13.6498 8.84998C13.7998 8.06664 13.5748 7.33331 12.9748 6.64998C12.3748 5.96664 11.5998 5.69998 10.6498 5.84998L9.19981 4.39998C9.48314 4.26664 9.77064 4.16664 10.0623 4.09998C10.354 4.03331 10.6665 3.99998 10.9998 3.99998C12.2498 3.99998 13.3123 4.43748 14.1873 5.31248C15.0623 6.18748 15.4998 7.24998 15.4998 8.49998C15.4998 8.83331 15.4665 9.14581 15.3998 9.43748C15.3331 9.72914 15.2331 10.0166 15.0998 10.3ZM18.2998 13.45L16.8498 12.05C17.4831 11.5666 18.0456 11.0375 18.5373 10.4625C19.029 9.88748 19.4498 9.23331 19.7998 8.49998C18.9665 6.81664 17.7706 5.47914 16.2123 4.48748C14.654 3.49581 12.9165 2.99998 10.9998 2.99998C10.5165 2.99998 10.0415 3.03331 9.57481 3.09998C9.10814 3.16664 8.64981 3.26664 8.19981 3.39998L6.6498 1.84998C7.33314 1.56664 8.03314 1.35414 8.7498 1.21248C9.46647 1.07081 10.2165 0.999976 10.9998 0.999976C13.3831 0.999976 15.5248 1.62914 17.4248 2.88748C19.3248 4.14581 20.7498 5.78331 21.6998 7.79998C21.7498 7.88331 21.7831 7.98748 21.7998 8.11248C21.8165 8.23748 21.8248 8.36664 21.8248 8.49998C21.8248 8.63331 21.8123 8.76248 21.7873 8.88748C21.7623 9.01248 21.7331 9.11664 21.6998 9.19998C21.3165 10.05 20.8373 10.8333 20.2623 11.55C19.6873 12.2666 19.0331 12.9 18.2998 13.45ZM18.0998 18.9L14.5998 15.45C14.0165 15.6333 13.429 15.7708 12.8373 15.8625C12.2456 15.9541 11.6331 16 10.9998 16C8.61647 16 6.4748 15.3708 4.5748 14.1125C2.6748 12.8541 1.2498 11.2166 0.299805 9.19998C0.249805 9.11664 0.216471 9.01248 0.199805 8.88748C0.183138 8.76248 0.174805 8.63331 0.174805 8.49998C0.174805 8.36664 0.183138 8.24164 0.199805 8.12498C0.216471 8.00831 0.249805 7.90831 0.299805 7.82498C0.649805 7.07498 1.06647 6.38331 1.5498 5.74998C2.03314 5.11664 2.56647 4.53331 3.1498 3.99998L1.0748 1.89998C0.891471 1.71664 0.799805 1.48748 0.799805 1.21248C0.799805 0.937476 0.899805 0.699976 1.0998 0.499976C1.28314 0.316642 1.51647 0.224976 1.7998 0.224976C2.08314 0.224976 2.31647 0.316642 2.4998 0.499976L19.4998 17.5C19.6831 17.6833 19.779 17.9125 19.7873 18.1875C19.7956 18.4625 19.6998 18.7 19.4998 18.9C19.3165 19.0833 19.0831 19.175 18.7998 19.175C18.5165 19.175 18.2831 19.0833 18.0998 18.9ZM4.5498 5.39998C4.06647 5.83331 3.6248 6.30831 3.2248 6.82498C2.8248 7.34164 2.48314 7.89998 2.1998 8.49998C3.03314 10.1833 4.22897 11.5208 5.7873 12.5125C7.34564 13.5041 9.08314 14 10.9998 14C11.3331 14 11.6581 13.9791 11.9748 13.9375C12.2915 13.8958 12.6165 13.85 12.9498 13.8L12.0498 12.85C11.8665 12.9 11.6915 12.9375 11.5248 12.9625C11.3581 12.9875 11.1831 13 10.9998 13C9.7498 13 8.68731 12.5625 7.8123 11.6875C6.9373 10.8125 6.4998 9.74998 6.4998 8.49998C6.4998 8.31664 6.5123 8.14164 6.5373 7.97498C6.5623 7.80831 6.5998 7.63331 6.6498 7.44998L4.5498 5.39998Z" fill="#9C9C9C"/>
</svg>
